<?xml version="1.0" encoding="utf-8"?>
<!-- Generator: Adobe Illustrator 19.2.1, SVG Export Plug-In . SVG Version: 6.00 Build 0)  -->
<svg version="1.1" id="Ebene_1" xmlns="http://www.w3.org/2000/svg" xmlns:xlink="http://www.w3.org/1999/xlink" x="0px" y="0px"
	 viewBox="0 0 50 50" style="enable-background:new 0 0 50 50;" xml:space="preserve">
<path d="M21.3,25.1c-0.2,0.2-0.4,0.5-0.4,0.9c0,0.4,0.1,0.6,0.4,0.9s0.5,0.4,0.9,0.4h0h0h0c0.3,0,0.6-0.1,0.9-0.4l0,0l0,0
	c0.2-0.2,0.4-0.5,0.4-0.9s-0.1-0.6-0.4-0.9c-0.2-0.2-0.5-0.4-0.8-0.4H22C21.7,24.7,21.5,24.9,21.3,25.1L21.3,25.1L21.3,25.1z
	 M14.8,33.6L14.8,33.6L14.8,33.6L14.8,33.6h-0.1c-0.3,0-0.6,0.1-0.8,0.4l0,0c-0.2,0.2-0.4,0.5-0.4,0.9c0,0.3,0.1,0.6,0.4,0.9h0
	c0.2,0.2,0.5,0.4,0.9,0.4c0.3,0,0.6-0.1,0.9-0.4l0,0c0.2-0.2,0.4-0.5,0.4-0.9c0-0.3-0.1-0.6-0.4-0.9l0,0l0,0
	C15.4,33.7,15.1,33.6,14.8,33.6L14.8,33.6z M16.8,17L16.8,17L16.8,17c0-0.4-0.1-0.6-0.4-0.9l0,0c-0.2-0.2-0.5-0.4-0.9-0.4
	c-0.3,0-0.6,0.1-0.9,0.4l0,0c-0.2,0.2-0.4,0.5-0.4,0.9c0,0.3,0.1,0.6,0.4,0.9l0,0c0.2,0.2,0.5,0.4,0.9,0.4c0.3,0,0.6-0.1,0.9-0.4
	l0,0l0,0C16.6,17.6,16.7,17.3,16.8,17C16.8,17,16.8,17,16.8,17L16.8,17z M28.3,6.6H23v11.3h-4.3c-0.2,0.5-0.4,0.9-0.8,1.3l0,0
	c-0.6,0.6-1.4,1-2.3,1s-1.7-0.3-2.3-1l0,0c-0.6-0.6-1-1.4-1-2.3c0-0.9,0.3-1.7,1-2.3l0,0l0,0c0.6-0.6,1.4-1,2.3-1
	c0.9,0,1.7,0.3,2.3,1l0,0l0,0c0.4,0.4,0.6,0.8,0.8,1.3H21V6.6h-14v17h8.8v8.1c0.5,0.1,1,0.4,1.4,0.8h0c0.6,0.6,1,1.4,1,2.3
	s-0.3,1.7-1,2.3l0,0c-0.6,0.6-1.4,1-2.3,1c-0.9,0-1.7-0.3-2.3-1l0,0l0,0c-0.6-0.6-1-1.4-1-2.3s0.3-1.7,1-2.3l0,0
	c0.4-0.4,0.8-0.6,1.2-0.8v-6.1H6.9v17.9h22.1v-6.1h-7.9v-8.5c-0.2-0.1-0.4-0.2-0.6-0.3c-0.3-0.1-0.5-0.3-0.7-0.5
	c-0.6-0.6-1-1.4-1-2.3s0.3-1.7,1-2.3l0,0l0,0c0.6-0.6,1.3-0.9,2.1-0.9l0.2,0c0.9,0,1.7,0.3,2.3,1c0.6,0.6,1,1.4,1,2.3
	c0,0.9-0.3,1.7-1,2.3l0,0c-0.2,0.2-0.5,0.4-0.7,0.5c-0.2,0.1-0.4,0.2-0.6,0.3v6.5h7.9v8.1h5.3v-12h-8.1V6.6L28.3,6.6z M36.6,15.1
	h-0.1c-0.3,0-0.6,0.1-0.8,0.4l0,0c-0.2,0.2-0.4,0.5-0.4,0.9c0,0.4,0.1,0.6,0.4,0.9c0.2,0.2,0.5,0.4,0.9,0.4h0h0h0
	c0.3,0,0.6-0.1,0.9-0.4l0,0l0,0c0.2-0.2,0.4-0.5,0.4-0.9c0-0.3-0.1-0.6-0.4-0.9C37.2,15.2,36.9,15.1,36.6,15.1L36.6,15.1z
	 M34.2,14.1c0.6-0.6,1.3-0.9,2.1-0.9l0.2,0c0.9,0,1.7,0.3,2.3,1c0.6,0.6,1,1.4,1,2.3c0,0.9-0.3,1.7-1,2.3l0,0
	c-0.2,0.2-0.4,0.4-0.7,0.5l0,0c-0.2,0.1-0.4,0.2-0.6,0.3v3.4h6.4V6.6H30.3v23h8.1v14h5.6V25h-8.4v-5.5c-0.2-0.1-0.4-0.2-0.6-0.3h0
	c-0.2-0.1-0.4-0.2-0.5-0.4c-0.1-0.1-0.1-0.1-0.2-0.2c-0.6-0.6-1-1.4-1-2.3C33.3,15.5,33.6,14.7,34.2,14.1L34.2,14.1L34.2,14.1
	L34.2,14.1z"/>
</svg>
